<svg xmlns="http://www.w3.org/2000/svg" height="496pt" viewBox="-48 0 496 496.176" width="496pt"><path d="m376.089844 240h-124.960938c23.597656-26.273438 36.960938-60.246094 36.960938-96 0-79.398438-64.601563-144-144-144-79.402344 0-144.0000002 64.601562-144.0000002 144 0 35.753906 13.3593752 69.726562 36.9570312 96h-12.957031c-13.234375 0-24.0000002 10.769531-24.0000002 24v16c0 13.230469 10.7656252 24 24.0000002 24h10.117187c19.777344 61.214844 29.882813 124.816406 29.882813 189.191406v2.808594h16v-2.808594c0-.640625-.042969-1.269531-.042969-1.910156l4.898437 4.894531h14.453126l28.777343-28.777343 28.777344 28.777343h14.453125l28.777344-28.777343 28.777344 28.777343h14.453124l28.777344-28.777343 28.777344 28.777343h14.457031l4.71875-4.71875c0 .582031-.03125 1.160157-.03125 1.734375v2.808594h16v-2.808594c0-64.375 10.101563-127.976562 29.878907-189.191406h10.097656c13.230468 0 24-10.769531 24-24v-16c0-13.230469-10.769532-24-24-24zm-359.5625-88h95.855468c.511719 15.359375 2.304688 29.558594 5.082032 42.296875-27.96875 4.589844-52.578125 16.335937-69.792969 33.535156-18.425781-21.152343-29.382813-47.671875-31.144531-75.832031zm100.921875-58.296875c-2.777344 12.808594-4.601563 26.929687-5.097657 42.296875h-95.855468c1.800781-28.945312 13.199218-55.28125 31.136718-75.871094 17.207032 17.222656 41.832032 28.976563 69.816407 33.574219zm26.640625 2.296875c38.734375 0 73.933594-13.335938 96.453125-35.871094 17.9375 20.597656 29.335937 46.925782 31.136719 75.871094h-143.328126c.527344-14.753906 2.410157-28.265625 5.191407-40.496094 3.503906.222656 6.984375.496094 10.546875.496094zm-6.320313-16.296875c9.816407-31.421875 24.535157-52.277344 31.726563-61.152344 22.703125 4.59375 43.152344 15.296875 59.792968 30.191407-19.417968 19.378906-51.160156 31.257812-85.199218 31.257812-2.128906 0-4.210938-.207031-6.320313-.296875zm102.734375 148.128906c-22.519531-22.511719-57.703125-35.832031-96.414062-35.832031-3.585938 0-7.082032.273438-10.601563.496094-2.753906-12.136719-4.585937-25.703125-5.113281-40.496094h143.273438c-1.761719 28.160156-12.71875 54.679688-31.144532 75.832031zm-180.808594 12.167969c-.28125-.238281-.527343-.511719-.800781-.753906 15.027344-14.980469 37.417969-25.382813 62.59375-29.34375 3.367188 11.449218 7.304688 21.480468 11.304688 30.105468h-73.097657zm90.890626 0c-4.425782-8.625-8.953126-19.222656-12.832032-31.703125 2.109375-.089844 4.199219-.296875 6.335938-.296875 34.03125 0 65.773437 11.878906 85.191406 31.246094-.273438.25-.527344.515625-.800781.753906zm.40625-223.648438c-8.976563 12.488282-21.207032 33.242188-29.566407 61.746094-25.152343-3.96875-47.53125-14.371094-62.539062-29.34375 22.65625-20.296875 52.464843-32.753906 85.203125-32.753906 2.324218 0 4.605468.222656 6.902344.351562zm177.976562 371.625-20.800781 20.800782-24.6875-24.6875 24.6875-24.691406 22 22c-.390625 2.195312-.824219 4.386718-1.199219 6.578124zm-3.929688 26.558594c-.414062 3.328125-.75 6.664063-1.109374 10l-4.441407-4.4375zm-52.863281-41.757812-24.6875-24.6875 24.6875-24.691406 24.6875 24.691406zm-11.3125 11.3125-24.6875 24.6875-24.6875-24.6875 24.6875-24.691406zm-85.375 36 24.6875-24.691406 24.6875 24.691406-24.6875 24.6875zm24.6875-47.3125-24.6875-24.6875 24.6875-24.691406 24.6875 24.691406zm-11.3125 11.3125-24.6875 24.6875-24.6875-24.6875 24.6875-24.691406zm-60.6875-11.3125-24.6875-24.6875 24.6875-24.691406 24.6875 24.691406zm-47.3125-24.6875-14.496093 14.496094c-2.726563-12.882813-5.878907-25.683594-9.414063-38.402344zm-9.695312 39.679687c-.351563-2.082031-.769531-4.152343-1.136719-6.226562l22.144531-22.144531 24.6875 24.691406-24.6875 24.6875zm9.695312 32.320313-4.597656 4.589844c-.378906-3.449219-.730469-6.902344-1.160156-10.351563zm47.3125-24.691406 3.214844 3.21875 21.472656 21.472656-24.6875 24.6875-24.6875-24.6875zm140.785157 3.21875 3.214843-3.21875 24.6875 24.691406-24.6875 24.6875-24.6875-24.6875zm50.527343-50.527344 23.671875-23.675782c-3.496094 12.59375-6.617187 25.273438-9.320312 38.027344zm5.289063-44.089844 8.085937 8.089844-24.6875 24.6875-24.6875-24.6875 8.085938-8.089844zm-72 0 8.085937 8.089844-24.6875 24.6875-24.6875-24.6875 8.085938-8.089844zm-72 0 8.085937 8.089844-24.6875 24.6875-24.6875-24.6875 8.085938-8.089844zm-72 0 8.085937 8.089844-24.6875 24.6875-24.6875-24.6875 8.085938-8.089844zm-16 176.175781h-1.203125l-11.980469-11.992187c-.304688-7.632813-.785156-15.238282-1.363281-22.839844l13.945312-13.945312 24.6875 24.691406zm46.710937-24.085937 24.6875-24.691406 24.6875 24.691406-24.085937 24.085937h-1.203125zm97.289063 24.085937h-1.203125l-24.085938-24.085937 24.6875-24.691406 24.6875 24.691406zm72 0h-1.203125l-24.085938-24.085937 24.6875-24.691406 13.785157 13.785156c-.585938 7.710937-1.074219 15.441406-1.375 23.175781zm75.3125-200.175781c0 4.40625-3.585938 8-8 8h-352c-4.417969 0-8-3.59375-8-8v-16c0-4.40625 3.582031-8 8-8h352c4.414062 0 8 3.59375 8 8zm0 0"></path></svg>
